PathFileType	4	(X/Y/Z)	C:\Users\Basilio\Documents\Thesis Gigler\squatting_fais\c3dfiles\073\SLS_front_pre2\markers_experimental.trc
DataRate	CameraRate	NumFrames	NumMarkers	Units	OrigDataRate	OrigDataStartFrame	OrigNumFrames
200.000000	200.000000	4	61	mm	200.000000	664	1328
Frame#	Time	FHD			LBHD			RBHD			C7			T10			CLAV			LSHO			LUUPA			LMUPA			LDUPA			LLEP			LMEP			LRAD			LUL			LRFIN			RSHO			RUPA1			RMUPA			RDUPA			RLEP			RMEP			RRAD			RUL			RUFIN			LASI			RASI			USACR			LSACR			RSACR			LTHI1			LTHI2			LTHI3			LTHI4			LLFC			LMFC			LTIB1			LTIB2			LTIB3			LTIB4			LLMAL			LMMAL			LHEE			LMT1			LMT2			LMT5			RTHI			RTHI2			RTHI3			RTHI4			RLFC			RMFC			RTIB1			RTIB2			RTIB3			RTIB4			RLMAL			RMMAL			RHEE			RMT1			RMT2			RMT5			
		X1	Y1	Z1	X2	Y2	Z2	X3	Y3	Z3	X4	Y4	Z4	X5	Y5	Z5	X6	Y6	Z6	X7	Y7	Z7	X8	Y8	Z8	X9	Y9	Z9	X10	Y10	Z10	X11	Y11	Z11	X12	Y12	Z12	X13	Y13	Z13	X14	Y14	Z14	X15	Y15	Z15	X16	Y16	Z16	X17	Y17	Z17	X18	Y18	Z18	X19	Y19	Z19	X20	Y20	Z20	X21	Y21	Z21	X22	Y22	Z22	X23	Y23	Z23	X24	Y24	Z24	X25	Y25	Z25	X26	Y26	Z26	X27	Y27	Z27	X28	Y28	Z28	X29	Y29	Z29	X30	Y30	Z30	X31	Y31	Z31	X32	Y32	Z32	X33	Y33	Z33	X34	Y34	Z34	X35	Y35	Z35	X36	Y36	Z36	X37	Y37	Z37	X38	Y38	Z38	X39	Y39	Z39	X40	Y40	Z40	X41	Y41	Z41	X42	Y42	Z42	X43	Y43	Z43	X44	Y44	Z44	X45	Y45	Z45	X46	Y46	Z46	X47	Y47	Z47	X48	Y48	Z48	X49	Y49	Z49	X50	Y50	Z50	X51	Y51	Z51	X52	Y52	Z52	X53	Y53	Z53	X54	Y54	Z54	X55	Y55	Z55	X56	Y56	Z56	X57	Y57	Z57	X58	Y58	Z58	X59	Y59	Z59	X60	Y60	Z60	X61	Y61	Z61	

665	3.32	-128.4795074462891	1335.491088867188	-796.2688598632815	-263.1395263671876	1309.704467773438	-822.715759277344	-288.7326354980469	1292.991088867188	-689.4129638671876	-314.8251953125001	1217.847534179688	-753.5520019531251	-527.3853149414064	967.5971679687502	-755.1815185546876	-229.0283355712891	1092.10595703125	-751.6135253906251	-231.8755035400391	1150.260986328125	-893.0278320312502	-166.9874725341797	1061.51806640625	-986.3657226562502	-124.3264694213867	1072.99853515625	-962.6219482421877	-111.9673919677735	1022.42724609375	-994.4305419921877	-12.93319892883301	978.3865966796877	-994.0355224609377	-26.73254585266114	925.6478271484377	-948.5957641601565	241.0697631835938	971.8596801757815	-866.294128417969	248.6950683593751	967.0639648437502	-940.064392089844	322.0774841308594	975.1799926757815	-855.5183105468752	-224.8815307617188	1144.294555664063	-613.7152099609376	-152.4877319335938	1038.836303710938	-510.9978332519532	-110.9580993652344	1054.0087890625	-529.9033203125001	-94.49023437500001	1001.922241210938	-505.732391357422	-4.788942813873292	972.361022949219	-507.5470581054689	-16.92277336120606	917.2578125000002	-568.0067138671876	243.0621337890626	979.079772949219	-644.8212280273439	257.4748840332032	988.3101196289065	-568.9992065429689	330.0295410156251	996.545349121094	-654.9883422851564	-418.5308837890626	782.4793090820315	-884.3146972656252	-408.027313232422	776.7542114257815	-638.6315307617189	-585.8556518554689	828.4244384765627	-752.1895141601564	-595.4249877929689	798.1220703125002	-780.2178344726565	-596.1761474609376	795.1997070312502	-724.5825195312501	-223.368881225586	611.2446289062501	-942.2248535156252	-140.8023681640625	610.3847045898439	-921.2736816406252	-128.7111053466797	648.3692016601564	-890.7268066406252	-107.5911331176758	563.5318603515626	-910.3989257812502	-55.74134063720705	536.8204956054689	-909.597351074219	-58.24669647216798	532.0381469726564	-769.1708984375002	131.987548828125	465.7161254882814	-853.6781005859377	131.9723358154297	396.0406494140626	-907.1986083984377	161.2392272949219	424.1030578613282	-886.2061767578127	224.5832824707032	379.5092773437501	-852.1385498046877	284.6662597656251	259.6091918945313	-876.6639404296877	271.8955688476563	281.3420104980469	-792.4952392578127	279.7200012207032	192.2110748291016	-833.7966308593752	411.5223083496095	372.1226196289063	-795.9420166015627	410.3613891601564	373.9517822265626	-833.9963378906252	409.0019836425782	332.4893493652344	-887.7185058593752	-327.8893737792969	574.3442382812501	-587.0723266601564	-261.7311706542969	568.3688354492189	-591.2401733398439	-242.4813995361329	595.6984252929689	-594.4101562500001	-218.3731384277344	501.5299682617189	-615.5695800781251	-116.7222061157227	419.5360412597657	-650.8815307617189	-119.1278533935547	433.1675415039064	-781.667175292969	-158.90087890625	286.1149597167969	-762.4098510742189	-218.1010284423829	220.1802062988282	-699.6520385742189	-203.0249938964844	213.0711822509766	-744.6038818359376	-247.4564819335938	192.153549194336	-777.5812988281252	-353.6661987304688	97.14149475097659	-725.7933349609376	-341.5173645019532	128.7042388916016	-812.1677246093752	-432.1893005371095	86.35696411132814	-783.0766601562502	-207.9191131591797	54.22117233276369	-786.351501464844	-210.3877716064454	51.04982757568361	-745.8056640625001	-256.4675903320313	34.3961296081543	-700.0794677734376	
666	3.325	-128.1919860839844	1335.540283203125	-796.340759277344	-262.9065551757813	1309.742919921875	-822.731628417969	-288.4822082519532	1293.177001953125	-689.3931274414064	-314.6068420410157	1217.967895507813	-753.5471801757814	-527.2474975585939	967.7636718750002	-755.1352539062501	-228.8523712158204	1092.156127929688	-751.6135864257814	-231.7056274414063	1150.356323242188	-893.0523681640627	-166.7951049804688	1061.578002929688	-986.3270263671877	-124.1531982421875	1073.016357421875	-962.5775146484377	-111.4491882324219	1021.814392089844	-993.4062500000002	-12.76114177703858	978.385192871094	-993.975524902344	-26.4973258972168	925.6499023437502	-948.525817871094	241.2949371337891	971.9389648437502	-866.1651000976565	248.8795013427735	967.0840454101565	-939.9238281250002	322.2943420410157	975.2821044921877	-855.3782958984377	-224.6117706298829	1144.371337890625	-613.7385864257814	-152.3234100341797	1038.876708984375	-510.9756469726564	-110.8125228881836	1054.03759765625	-529.9051513671876	-94.33516693115236	1001.95458984375	-505.7278442382814	-4.623433589935304	972.3714599609377	-507.5350646972657	-16.79151725769043	917.2639770507815	-567.9237670898439	243.2667694091797	978.9802856445315	-644.7593383789064	257.6468200683594	988.2209472656252	-568.9832763671876	330.1877136230469	996.3698730468752	-654.8841552734376	-418.3733520507814	782.6441650390627	-884.2322387695315	-407.9605407714845	776.8824462890627	-638.6135864257814	-585.7141113281251	828.6058349609377	-752.1869506835939	-595.2951049804689	798.296569824219	-780.2290649414065	-596.0959472656251	795.3352661132815	-724.5086059570314	-223.2899932861329	611.3413085937501	-942.0937500000002	-140.7103424072266	610.4711303710939	-921.095642089844	-128.6393432617188	648.3947753906251	-890.540954589844	-107.5506896972657	563.6258544921876	-910.2949829101565	-55.70869827270509	536.8677368164064	-909.4497680664065	-58.28858947753908	531.9935913085939	-768.9520263671877	132.012924194336	465.7276916503907	-853.5513305664065	132.2910766601563	396.0308532714845	-906.9088134765627	161.2420043945313	424.1511840820314	-885.990661621094	224.5515136718751	379.5266113281251	-851.9846191406252	284.7604980468751	259.7005004882813	-876.503112792969	271.8629455566407	281.3605346679688	-792.2771606445315	279.6876831054688	192.2062072753907	-833.5539550781252	411.5498657226564	372.1023864746094	-795.7025146484377	410.3201599121095	373.9493103027344	-833.6502685546877	409.0088195800782	332.5560913085938	-887.4985961914065	-327.8812255859376	574.4052734375001	-587.1118164062501	-261.7446594238282	568.3927001953126	-591.2346191406251	-242.4368286132813	595.6936645507814	-594.4348754882814	-218.3965606689454	501.5773925781251	-615.5870361328126	-116.7237091064453	419.553924560547	-650.9102172851564	-119.1699371337891	433.130584716797	-781.9486083984377	-158.916488647461	286.1250305175782	-762.3893432617189	-218.1016235351563	220.2086181640626	-699.6082763671876	-203.0188598632813	213.0941314697266	-744.6000976562501	-247.4597473144532	192.1564636230469	-777.6263427734377	-353.6718444824219	97.14604949951175	-725.8016967773439	-341.5480346679688	128.7624664306641	-812.167419433594	-432.2104797363282	86.37545013427736	-783.0450439453127	-207.9256744384766	54.22830963134767	-786.2996215820315	-210.4006652832032	51.05407714843751	-745.8663330078126	-256.4351196289063	34.41998672485352	-700.1271362304689	
667	3.33	-127.8012390136719	1335.6181640625	-796.429626464844	-262.7006530761719	1309.827026367188	-822.7825927734377	-288.2041931152344	1293.3232421875	-689.3931884765626	-314.4037170410157	1218.1123046875	-753.5494384765626	-527.1029663085939	967.9052734375002	-755.0841674804689	-228.6983795166016	1092.297485351563	-751.6016845703126	-231.4532165527344	1150.412841796875	-892.998718261719	-166.6654663085938	1061.60400390625	-986.2739868164065	-123.9919052124024	1073.078857421875	-962.5780029296877	-111.5305709838867	1022.340148925781	-994.0706176757815	-12.56858730316162	978.417419433594	-993.9029541015627	-26.31532669067384	925.7362060546877	-948.3552246093752	241.5934143066407	972.0666503906252	-866.0049438476565	249.0357360839844	967.1275024414065	-939.8597412109377	322.3649902343751	975.408630371094	-855.3330078125002	-224.4620361328126	1144.456787109375	-613.7698364257814	-152.1581268310547	1038.9189453125	-510.8981018066407	-110.6023635864258	1054.095581054688	-529.9125976562501	-94.21475219726564	1002.021484375	-505.691864013672	-4.437454223632813	972.3984985351565	-507.5268859863282	-16.64284706115723	917.3093872070315	-567.9055175781251	243.4961090087891	978.9516601562502	-644.5986938476564	257.7994995117188	988.1600341796877	-568.9330444335939	330.3871765136719	996.230895996094	-654.7595214843751	-418.1663513183595	782.7598876953127	-884.1437988281252	-407.8457336425782	777.0343017578127	-638.5341186523439	-585.5632324218751	828.7875976562502	-752.1424560546876	-595.1651611328126	798.4846191406252	-780.1926269531252	-595.9901123046876	795.525817871094	-724.4758300781251	-223.1592712402344	611.4517211914064	-942.018981933594	-140.6307067871094	610.5555419921876	-920.9973754882815	-128.5600891113282	648.4867553710939	-890.4274902343752	-107.5072021484375	563.6616821289064	-910.174011230469	-55.63955307006837	536.9476928710939	-909.3093872070315	-58.32640838623048	532.0006103515626	-768.8497314453127	132.0751037597657	465.7718811035157	-853.3820800781252	132.3853454589844	396.1272888183595	-906.7551879882815	161.2927703857422	424.1980285644532	-885.7913208007815	224.5915832519532	379.5246582031251	-851.776550292969	284.6773376464844	259.6559143066407	-876.171325683594	271.8621520996094	281.3705139160157	-792.0954589843752	279.7405700683594	192.2447967529297	-833.322204589844	411.5247497558595	372.1206665039063	-795.4168090820315	410.3187561035157	373.9185180664063	-833.3945922851565	409.072479248047	332.5566101074219	-887.1297607421877	-327.8553161621094	574.4619750976564	-587.0900268554689	-261.6579284667969	568.4909057617189	-591.1500854492189	-242.4253997802735	595.7756347656251	-594.4008789062501	-218.3888092041016	501.6119079589845	-615.6444702148439	-116.7695388793946	419.596405029297	-650.8655395507814	-119.2120208740235	433.0783691406251	-781.9006347656252	-158.8802642822266	286.1344604492188	-762.3790283203126	-218.1098937988282	220.2529602050782	-699.6276855468751	-203.0386657714844	213.1075744628907	-744.6042480468751	-247.4586181640626	192.1853485107422	-777.564636230469	-353.6636962890626	97.13185119628909	-725.7985839843751	-341.4881286621094	128.7450866699219	-812.1860961914065	-432.2106933593751	86.38552856445314	-783.0405273437502	-207.9058532714844	54.242244720459	-786.3200683593752	-210.4020233154297	51.0156593322754	-745.8498535156251	-256.4625549316407	34.40417480468751	-700.1089477539064	
668	3.335	-127.4451446533203	1335.667846679688	-796.4915771484377	-262.5012512207032	1309.930297851563	-822.8559570312502	-288.0054321289063	1293.505493164063	-689.4686279296876	-314.1722717285157	1218.296264648438	-753.5536499023439	-526.9202270507814	968.121765136719	-755.0673828125001	-228.5096130371094	1092.401977539063	-751.5961303710939	-231.1673278808594	1150.459228515625	-892.9589843750002	-166.5073394775391	1061.721557617188	-986.243835449219	-123.8045806884766	1073.150024414063	-962.5910644531252	-111.3862228393555	1022.387451171875	-994.0579833984377	-12.39782428741455	978.480163574219	-993.8813476562502	-26.19792747497559	925.8273925781252	-948.2993774414065	241.7057342529297	972.159362792969	-865.9539794921877	249.1806182861329	967.2122802734377	-939.7613525390627	322.4583740234376	975.495300292969	-855.225524902344	-224.3040771484376	1144.56884765625	-613.7955322265626	-151.9961853027344	1038.99560546875	-510.8606262207032	-110.4544677734375	1054.176879882813	-529.8393554687501	-94.09066009521486	1002.05615234375	-505.6856689453126	-4.302316665649415	972.4734497070315	-507.4914550781251	-16.50558853149414	917.4221801757815	-567.8768920898439	243.6191558837891	978.9155883789065	-644.5693359375001	257.9330139160157	988.1113281250002	-568.8464965820314	330.5675354003907	996.1287231445315	-654.5770263671876	-417.9926147460939	783.035095214844	-884.1077270507815	-407.7703552246095	777.1849365234377	-638.5544433593751	-585.4155883789064	829.0091552734377	-752.1564941406251	-595.0606079101564	798.7175292968752	-780.2229614257815	-595.9086914062501	795.7620849609377	-724.4797973632814	-223.1802978515626	611.5332031250001	-941.877136230469	-140.5135650634766	610.6616821289064	-920.8760375976565	-128.4938201904297	648.5919189453126	-890.2737426757815	-107.4796905517578	563.7790527343751	-910.0737915039065	-55.58245849609376	537.0188598632814	-909.080505371094	-58.33463287353517	532.0615234375001	-768.7418212890627	132.0238952636719	465.8437805175782	-853.1562500000002	132.4398040771485	396.1637268066407	-906.696716308594	161.3928680419922	424.2809143066407	-885.6557617187502	224.6033935546876	379.5486145019532	-851.5662231445315	284.7770996093751	259.6705322265626	-875.9480590820315	271.8484802246094	281.3712768554688	-791.816101074219	279.7455444335938	192.2640228271485	-832.9653930664065	411.5211791992189	372.1156311035157	-795.1287841796877	410.3408508300782	374.0004882812501	-833.1755371093752	409.1390380859376	332.5816650390626	-886.836608886719	-327.8385925292969	574.5695190429689	-587.0656738281251	-261.6507263183594	568.5680541992189	-591.1148681640626	-242.4294891357422	595.8270874023439	-594.3945922851564	-218.3882751464844	501.6644592285157	-615.6472778320314	-116.8259353637696	419.6140136718751	-650.8789672851564	-119.2066955566407	433.1028747558595	-781.8011474609377	-158.946044921875	286.1808776855469	-762.3919677734376	-218.1195526123047	220.3371734619141	-699.6311035156251	-203.0403442382813	213.1238250732422	-744.5428466796876	-247.464340209961	192.2116699218751	-777.551452636719	-353.6631469726563	97.16067504882815	-725.7883300781251	-341.4901123046876	128.7243347167969	-812.1699829101565	-432.1972961425782	86.37678527832033	-783.0554809570315	-207.8803100585938	54.22436904907228	-786.3267211914065	-210.4031524658204	51.01168441772462	-745.8340454101564	-256.4663085937501	34.38999938964844	-700.1101684570314	
